<svg width="316" height="72" viewBox="0 0 316 72" fill="none" xmlns="http://www.w3.org/2000/svg">
    <path fill-rule="evenodd" clip-rule="evenodd" d="M60.9917 10.4645C54.5262 3.99901 45.5941 0 35.7281 0C15.996 0 0 15.996 0 35.7281C0 55.4602 15.996 71.4562 35.7281 71.4562C45.5941 71.4562 54.5261 67.4572 60.9917 60.9917L46.9563 46.9564C44.0828 49.8299 40.113 51.6073 35.7281 51.6073C26.9583 51.6073 19.8489 44.4979 19.8489 35.7281C19.8489 26.9583 26.9583 19.8489 35.7281 19.8489C40.113 19.8489 44.0828 21.6263 46.9564 24.4999L60.9917 10.4645Z" fill="#5E81FF"/>
    <path fill-rule="evenodd" clip-rule="evenodd" d="M47.2255 47.114L36.1206 35.7281L47.2255 24.3422C50.0675 27.2561 51.8253 31.2816 51.8253 35.7281C51.8253 40.1746 50.0675 44.2001 47.2255 47.114Z" fill="#FE3D7F"/>
    <path d="M301.718 61.8601C299.534 61.8601 297.512 61.5021 295.65 60.7862C293.789 60.0703 292.178 59.0681 290.818 57.7794C289.494 56.5266 288.527 55.0411 287.919 53.3229L294.469 50.8531C294.899 52.2133 295.74 53.305 296.993 54.1283C298.281 54.9874 299.856 55.4169 301.718 55.4169C303.15 55.4169 304.402 55.1485 305.476 54.6116C306.586 54.0746 307.445 53.2871 308.053 52.2491C308.662 51.2468 308.966 50.0298 308.966 48.5979V41.94L310.309 43.5508C309.306 45.3048 307.964 46.6292 306.282 47.5241C304.599 48.419 302.684 48.8664 300.536 48.8664C297.816 48.8664 295.382 48.24 293.234 46.9872C291.087 45.7343 289.404 44.0162 288.187 41.8326C286.97 39.6491 286.362 37.1972 286.362 34.4767C286.362 31.7205 286.97 29.2685 288.187 27.1208C289.404 24.9731 291.069 23.2907 293.181 22.0737C295.292 20.8208 297.691 20.1944 300.375 20.1944C302.559 20.1944 304.474 20.6597 306.121 21.5904C307.803 22.4853 309.199 23.7918 310.309 25.51L309.342 27.2819V20.8387H316V48.5979C316 51.1394 315.374 53.4124 314.121 55.4169C312.904 57.4215 311.221 58.9965 309.074 60.1419C306.962 61.2874 304.51 61.8601 301.718 61.8601ZM301.396 42.3696C302.899 42.3696 304.206 42.0474 305.315 41.4031C306.461 40.723 307.355 39.7923 308 38.6111C308.644 37.4298 308.966 36.0696 308.966 34.5304C308.966 33.027 308.626 31.6847 307.946 30.5034C307.302 29.2864 306.407 28.3378 305.261 27.6577C304.152 26.9776 302.863 26.6375 301.396 26.6375C299.928 26.6375 298.604 26.9776 297.422 27.6577C296.241 28.3378 295.31 29.2864 294.63 30.5034C293.986 31.6847 293.664 33.027 293.664 34.5304C293.664 36.0338 293.986 37.3761 294.63 38.5574C295.31 39.7386 296.223 40.6693 297.369 41.3494C298.55 42.0295 299.892 42.3696 301.396 42.3696Z" fill="#05264E"/>
    <path d="M255.715 50.0477V20.8387H262.319V26.5839L261.782 25.5637C262.462 23.8097 263.572 22.4853 265.111 21.5904C266.686 20.6597 268.512 20.1944 270.588 20.1944C272.736 20.1944 274.633 20.6597 276.279 21.5904C277.962 22.5211 279.268 23.8276 280.199 25.51C281.13 27.1566 281.595 29.0716 281.595 31.2551V50.0477H274.561V32.9196C274.561 31.631 274.311 30.5213 273.81 29.5907C273.308 28.66 272.61 27.9441 271.716 27.4429C270.856 26.906 269.836 26.6375 268.655 26.6375C267.51 26.6375 266.489 26.906 265.595 27.4429C264.7 27.9441 264.002 28.66 263.501 29.5907C262.999 30.5213 262.749 31.631 262.749 32.9196V50.0477H255.715Z" fill="#05264E"/>
    <path d="M242.187 50.0477V20.8387H249.221V50.0477H242.187ZM242.187 17.5635V10.0464H249.221V17.5635H242.187Z" fill="#05264E"/>
    <path d="M192.584 50.0477V20.8387H199.188V27.604L198.436 26.4765C198.973 24.3645 200.047 22.7896 201.658 21.7515C203.269 20.7134 205.166 20.1944 207.349 20.1944C209.748 20.1944 211.86 20.8208 213.685 22.0737C215.511 23.3265 216.692 24.9731 217.229 27.0134L215.242 27.1745C216.137 24.8478 217.48 23.1117 219.269 21.9663C221.059 20.785 223.117 20.1944 225.444 20.1944C227.52 20.1944 229.364 20.6597 230.974 21.5904C232.621 22.5211 233.91 23.8276 234.84 25.51C235.771 27.1566 236.236 29.0716 236.236 31.2551V50.0477H229.202V32.9196C229.202 31.631 228.97 30.5213 228.504 29.5907C228.039 28.66 227.395 27.9441 226.572 27.4429C225.748 26.906 224.746 26.6375 223.565 26.6375C222.455 26.6375 221.471 26.906 220.612 27.4429C219.753 27.9441 219.09 28.66 218.625 29.5907C218.16 30.5213 217.927 31.631 217.927 32.9196V50.0477H210.893V32.9196C210.893 31.631 210.661 30.5213 210.195 29.5907C209.73 28.66 209.068 27.9441 208.209 27.4429C207.385 26.906 206.401 26.6375 205.255 26.6375C204.146 26.6375 203.161 26.906 202.302 27.4429C201.443 27.9441 200.781 28.66 200.316 29.5907C199.85 30.5213 199.618 31.631 199.618 32.9196V50.0477H192.584Z" fill="#05264E"/>
    <path d="M160.756 50.0477V20.8387H167.36V26.5839L166.824 25.5637C167.504 23.8097 168.613 22.4853 170.152 21.5904C171.727 20.6597 173.553 20.1944 175.629 20.1944C177.777 20.1944 179.674 20.6597 181.321 21.5904C183.003 22.5211 184.31 23.8276 185.24 25.51C186.171 27.1566 186.636 29.0716 186.636 31.2551V50.0477H179.602V32.9196C179.602 31.631 179.352 30.5213 178.851 29.5907C178.35 28.66 177.652 27.9441 176.757 27.4429C175.898 26.906 174.877 26.6375 173.696 26.6375C172.551 26.6375 171.531 26.906 170.636 27.4429C169.741 27.9441 169.043 28.66 168.542 29.5907C168.041 30.5213 167.79 31.631 167.79 32.9196V50.0477H160.756Z" fill="#05264E"/>
    <path d="M138.469 50.692C136.429 50.692 134.657 50.3519 133.154 49.6718C131.65 48.9917 130.487 48.0252 129.664 46.7724C128.84 45.4838 128.429 43.9983 128.429 42.3159C128.429 40.7051 128.787 39.2733 129.503 38.0204C130.219 36.7318 131.328 35.658 132.832 34.7989C134.335 33.9398 136.232 33.3313 138.523 32.9733L148.08 31.4162V36.7855L139.865 38.1815C138.469 38.4321 137.431 38.8795 136.751 39.5238C136.071 40.1682 135.731 41.0094 135.731 42.0474C135.731 43.0497 136.107 43.8551 136.859 44.4636C137.646 45.0363 138.613 45.3227 139.758 45.3227C141.226 45.3227 142.514 45.0184 143.624 44.4099C144.769 43.7656 145.646 42.8886 146.255 41.7789C146.899 40.6693 147.221 39.4523 147.221 38.1278V30.6108C147.221 29.358 146.72 28.3199 145.718 27.4966C144.751 26.6375 143.463 26.208 141.852 26.208C140.349 26.208 139.006 26.6196 137.825 27.4429C136.68 28.2304 135.838 29.2864 135.302 30.6108L129.556 27.8188C130.129 26.2796 131.024 24.9552 132.241 23.8455C133.494 22.7001 134.961 21.8052 136.644 21.1609C138.326 20.5166 140.152 20.1944 142.121 20.1944C144.519 20.1944 146.631 20.6418 148.456 21.5367C150.282 22.3958 151.696 23.6128 152.698 25.1878C153.736 26.727 154.255 28.5347 154.255 30.6108V50.0477H147.597V45.0542L149.101 44.9468C148.349 46.1997 147.454 47.2556 146.416 48.1147C145.378 48.938 144.197 49.5823 142.872 50.0477C141.548 50.4772 140.08 50.692 138.469 50.692Z" fill="#05264E"/>
    <path d="M97.7825 50.0477V9.40216H104.816V26.5839L103.85 25.5637C104.53 23.8098 105.64 22.4853 107.179 21.5904C108.754 20.6598 110.579 20.1944 112.655 20.1944C114.803 20.1944 116.7 20.6598 118.347 21.5904C120.029 22.5211 121.336 23.8277 122.266 25.51C123.197 27.1566 123.663 29.0717 123.663 31.2552V50.0477H116.629V32.9197C116.629 31.631 116.378 30.5214 115.877 29.5907C115.376 28.66 114.678 27.9441 113.783 27.443C112.924 26.906 111.904 26.6376 110.723 26.6376C109.577 26.6376 108.557 26.906 107.662 27.443C106.767 27.9441 106.069 28.66 105.568 29.5907C105.067 30.5214 104.816 31.631 104.816 32.9197V50.0477H97.7825Z" fill="#05264E"/>
    <path d="M79.1833 50.692C76.2839 50.692 73.6708 50.0298 71.3441 48.7053C69.0532 47.3451 67.2456 45.5196 65.9211 43.2287C64.5967 40.902 63.9345 38.2889 63.9345 35.3895C63.9345 32.4901 64.5967 29.8949 65.9211 27.604C67.2456 25.3131 69.0532 23.5055 71.3441 22.181C73.6708 20.8566 76.2839 20.1944 79.1833 20.1944C81.2594 20.1944 83.1924 20.5702 84.9821 21.322C86.7719 22.0379 88.3111 23.0401 89.5997 24.3288C90.9241 25.5816 91.8727 27.085 92.4454 28.839L86.2708 31.5236C85.7338 30.056 84.8211 28.8748 83.5324 27.9799C82.2796 27.085 80.8299 26.6375 79.1833 26.6375C77.6441 26.6375 76.266 27.0134 75.0489 27.7651C73.8677 28.5168 72.937 29.5549 72.2569 30.8793C71.5768 32.2037 71.2367 33.725 71.2367 35.4432C71.2367 37.1614 71.5768 38.6827 72.2569 40.0071C72.937 41.3315 73.8677 42.3696 75.0489 43.1213C76.266 43.873 77.6441 44.2488 79.1833 44.2488C80.8657 44.2488 82.3333 43.8014 83.5861 42.9065C84.8389 42.0116 85.7338 40.8125 86.2708 39.3091L92.4454 42.1011C91.8727 43.7477 90.942 45.2332 89.6534 46.5576C88.3648 47.8462 86.8256 48.8664 85.0358 49.6181C83.2461 50.334 81.2952 50.692 79.1833 50.692Z" fill="#05264E"/>
</svg>
